<?xml version="1.0" encoding="UTF-8"?>
<svg version="1.1" xmlns="http://www.w3.org/2000/svg" width="48" height="48">
<path d="M0 0 C3.73239725 1.83074407 6.17780806 4.13611692 7.86328125 7.95703125 C8.4375 9.875 8.4375 9.875 9 13 C9.928125 13.0825 10.85625 13.165 11.8125 13.25 C15 14 15 14 16.875 15.5625 C18.49018839 19.06207484 18.78331418 22.26817303 18 26 C15.875 29 15.875 29 13 31 C9.6875 31.3125 9.6875 31.3125 7 31 C7 30.01 7 29.02 7 28 C8.98 27.01 10.96 26.02 13 25 C13 23.02 13 21.04 13 19 C11.741875 18.67 10.48375 18.34 9.1875 18 C6.57530328 17.04510208 5.32503315 16.57570447 3.94140625 14.125 C3.48242219 12.71433712 3.04208059 11.29746483 2.62109375 9.875 C2.07514953 7.83759284 2.07514953 7.83759284 0.3125 6 C-3.11792394 4.51657343 -6.36908503 4.31150315 -10 5 C-12.73219193 6.91859167 -12.73219193 6.91859167 -15 9 C-16.32 9 -17.64 9 -19 9 C-18.76908069 5.88258929 -17.73145633 4.68065078 -15.6875 2.25 C-11.07235326 -1.32841088 -5.51705593 -1.03398639 0 0 Z " fill="#F9AF04" transform="translate(30,8)"/>
<path d="M0 0 C0 0.99 0 1.98 0 3 C-2.64 3.99 -5.28 4.98 -8 6 C-8 7.98 -8 9.96 -8 12 C-4.60136617 14.04348237 -1.85579897 14.29835885 2.078125 14.4140625 C3.23828125 14.45273437 4.3984375 14.49140625 5.59375 14.53125 C6.8003125 14.5621875 8.006875 14.593125 9.25 14.625 C10.47203125 14.66367187 11.6940625 14.70234375 12.953125 14.7421875 C15.9685994 14.83642108 18.98406828 14.92203455 22 15 C22 15.99 22 16.98 22 18 C17.81919399 18.12403121 13.63937498 18.21453601 9.45727539 18.2746582 C8.03618709 18.29973147 6.61522687 18.33379999 5.19458008 18.37719727 C3.14632538 18.43817858 1.09978117 18.46627762 -0.94921875 18.48828125 C-2.79519653 18.52755737 -2.79519653 18.52755737 -4.6784668 18.56762695 C-8.90594699 17.84517995 -10.34371176 16.28540101 -13 13 C-13.8999295 10.20492484 -13.69850841 7.83983749 -13 5 C-9.30474011 -0.54288984 -6.16029988 -0.52205931 0 0 Z " fill="#F9AF04" transform="translate(13,21)"/>
</svg>
